<?xml version="1.0" encoding="UTF-8"?>
<svg width="128" height="128" viewBox="0 0 128 128" xmlns="http://www.w3.org/2000/svg">
    <defs>
        <linearGradient id="grad" x1="0%" y1="0%" x2="100%" y2="100%">
            <stop offset="0%" style="stop-color:#FF6B6B;stop-opacity:1" />
            <stop offset="100%" style="stop-color:#4ECDC4;stop-opacity:1" />
        </linearGradient>
    </defs>
    <rect x="0" y="0" width="128" height="128" rx="20" fill="url(#grad)"/>
    <g transform="translate(32, 32)" fill="#FFFFFF">
        <path d="M32,0 C14.327,0 0,14.327 0,32 C0,49.673 14.327,64 32,64 C49.673,64 64,49.673 64,32 C64,14.327 49.673,0 32,0 M32,8 C45.255,8 56,18.745 56,32 C56,45.255 45.255,56 32,56 C18.745,56 8,45.255 8,32 C8,18.745 18.745,8 32,8"/>
        <circle cx="32" cy="32" r="6"/>
        <rect x="35" y="26" width="20" height="2" transform="rotate(45, 32, 32)"/>
    </g>
</svg>
